
        <svg xmlns="http://www.w3.org/2000/svg" xmlns:xlink="http://www.w3.org/1999/xlink" version="1.1" width="3202.515384222225" 
        height="1207.0293432723179" viewBox="0 -70.88038447777853 3202.515384222225 1207.0293432723179">
			
			<g transform="scale(10.12576921111122) translate(10, 10)">
				<defs id="SvgjsDefs7077"></defs><g id="SvgjsG7078" featureKey="ggLddZ-0" transform="matrix(1.0511019921913818,0,0,1.0511019921913818,9.209927386272252,-14.183231130915345)" fill="#2e8cec"><path xmlns="http://www.w3.org/2000/svg" d="M50,93.166C26.198,93.166,6.834,73.802,6.834,50S26.198,6.834,50,6.834S93.166,26.198,93.166,50S73.802,93.166,50,93.166z   M50,8.834C27.301,8.834,8.834,27.301,8.834,50S27.301,91.166,50,91.166S91.166,72.699,91.166,50S72.699,8.834,50,8.834z"></path><path xmlns="http://www.w3.org/2000/svg" d="M44.714,46.55l-0.107-0.742c18.198-2.623,28.245-13.025,31.72-17.375l0.586,0.468C73.382,33.32,63.177,43.889,44.714,46.55z  "></path><circle xmlns="http://www.w3.org/2000/svg" cx="44.793" cy="46.114" r="2.82"></circle><circle xmlns="http://www.w3.org/2000/svg" cx="76.514" cy="28.767" r="2.82"></circle><path xmlns="http://www.w3.org/2000/svg" d="M33.874,80.997c-3.484-4.387-9.012-13.539-6.895-25.552l0.738,0.131c-2.066,11.723,3.338,20.666,6.743,24.954L33.874,80.997  z"></path><circle xmlns="http://www.w3.org/2000/svg" cx="27.345" cy="55.653" r="2.82"></circle><circle xmlns="http://www.w3.org/2000/svg" cx="34.08" cy="80.649" r="2.82"></circle><path xmlns="http://www.w3.org/2000/svg" d="M78.553,58.284l-0.75-0.021c0.262-9.375-3.322-18.348-10.093-25.265c-7.05-7.204-16.891-11.292-27.026-11.233l-0.005-0.75  c10.321-0.04,20.376,4.11,27.567,11.458C75.16,39.537,78.82,48.704,78.553,58.284z"></path><circle xmlns="http://www.w3.org/2000/svg" cx="78.128" cy="58.131" r="2.82"></circle><circle xmlns="http://www.w3.org/2000/svg" cx="40.819" cy="21.442" r="2.82"></circle><path xmlns="http://www.w3.org/2000/svg" d="M55.399,79.061c-22.622-1.116-37.959-15.928-44.77-29.418c-5.007-9.918-5.79-19.582-2.043-25.222  c2.418-3.64,6.575-5.361,12.009-4.983l-0.052,0.748c-5.164-0.361-9.073,1.249-11.333,4.65c-3.598,5.416-2.798,14.791,2.088,24.469  c6.715,13.302,21.837,27.906,44.138,29.006L55.399,79.061z"></path><circle xmlns="http://www.w3.org/2000/svg" cx="55.277" cy="78.637" r="2.82"></circle><path xmlns="http://www.w3.org/2000/svg" d="M23.574,83.267C13.12,81.553,6.04,74.011,5.536,64.052c-0.484-9.58,5.413-20.969,19.679-24.818l0.195,0.724  C11.548,43.698,5.816,54.734,6.286,64.014c0.386,7.634,5.162,16.505,17.41,18.513L23.574,83.267z"></path><circle xmlns="http://www.w3.org/2000/svg" cx="25.179" cy="39.64" r="2.82"></circle><path xmlns="http://www.w3.org/2000/svg" d="M72.426,94.555c-0.325,0-0.654-0.015-0.988-0.046c-6.336-0.589-12.075-6.442-15.354-15.658l0.707-0.252  c3.178,8.934,8.679,14.602,14.716,15.163c3.25,0.309,6.127-1.001,7.521-3.397c1.443-2.479,1.026-5.686-1.145-8.796l0.615-0.43  c2.345,3.36,2.773,6.86,1.178,9.603C78.278,93.144,75.556,94.555,72.426,94.555z"></path><path xmlns="http://www.w3.org/2000/svg" d="M63.068,18.924l-0.713-0.234c1.704-5.167,4.714-8.496,8.26-9.131c2.183-0.394,4.329,0.351,5.595,1.938  c1.251,1.568,1.453,3.679,0.556,5.79l-0.689-0.293c0.786-1.85,0.621-3.683-0.452-5.029c-1.094-1.371-2.963-2.01-4.877-1.667  C67.481,10.882,64.683,14.027,63.068,18.924z"></path><circle xmlns="http://www.w3.org/2000/svg" cx="62.771" cy="18.677" r="2.82"></circle></g><g id="SvgjsG7079" featureKey="nN0dxP-0" transform="matrix(1.5487794817836054,0,0,1.5487794817836054,109.08829458163198,13.747082223383098)" fill="#111111"><path d="M7.04 6.800000000000001 c1.36 0 2.38 0.38 3.06 1.12 c0.6 0.66 0.9 1.64 0.9 2.84 l0 5.3 c0 2.42 -1.4 3.94 -3.96 3.94 l-5 0 c-0.1 0 -0.16 -0.08 -0.16 -0.18 l0 -12.84 c0 -0.1 0.06 -0.18 0.16 -0.18 l5 0 z M8.38 15.46 l0 -4.1 c0 -1.26 -0.66 -2.06 -2.06 -2.06 l-1.8 0 l0 8.2 l1.8 0 c1.2 0 2.06 -0.78 2.06 -2.04 z M3.1 8.02 l0 10.76 c0 0.08 0.08 0.1 0.12 0.1 l3.26 0 c2.3 0 3.34 -1.38 3.34 -2.66 l0 -5.12 c0 -2.12 -1.12 -3.2 -3.4 -3.2 l-3.2 0 c-0.04 0 -0.12 0.02 -0.12 0.12 z M9.58 11.1 l0 5.12 c0 1.6 -1.6 2.44 -3.1 2.44 l-3.14 0 l0 -10.5 l3.08 0 c2.1 0 3.16 0.94 3.16 2.94 z M14.66 20 c-0.1 0 -0.16 -0.08 -0.16 -0.18 l0 -12.84 c0 -0.1 0.06 -0.18 0.16 -0.18 l2.28 0 c0.1 0 0.18 0.08 0.18 0.18 l0 12.84 c0 0.1 -0.08 0.18 -0.18 0.18 l-2.28 0 z M15.700000000000001 8 l0 10.78 c0 0.18 0.22 0.18 0.22 0 l0 -10.78 c0 -0.14 -0.22 -0.14 -0.22 0 z M24.94 15.2 c-0.1 0 -0.18 -0.08 -0.18 -0.18 l0 -2.14 c0 -0.1 0.08 -0.18 0.18 -0.18 l4.58 0 c0.1 0 0.18 0.08 0.18 0.18 l0 3.14 c0 2.94 -1.58 4.18 -4.56 4.18 c-2.78 0 -4.6 -1.1 -4.6 -4.18 l0 -5.26 c0 -2.9 1.62 -4.14 4.6 -4.14 c2.8 0 4.56 1.08 4.56 4.14 l0 0.42 c0 0.1 -0.08 0.18 -0.18 0.18 l-2.3 0 c-0.1 0 -0.18 -0.08 -0.18 -0.18 l0 -0.26 c0 -1.22 -0.78 -1.62 -1.8 -1.62 l-0.24 0 c-0.66 0 -1.1 0.18 -1.4 0.58 c-0.28 0.38 -0.38 0.88 -0.38 1.54 l0 3.96 c0 1.74 0.94 2.12 1.78 2.12 l0.24 0 c1.22 0 1.8 -0.84 1.8 -2.12 l0 -0.18 l-2.1 0 z M21.76 15.879999999999999 c0 2.22 1.08 3.04 3.36 3.04 c2.4 0 3.38 -1 3.38 -3.46 l0 -1.5 c0 -0.06 -0.04 -0.14 -0.08 -0.14 l-2.78 0 c-0.18 0 -0.14 0.26 0 0.26 l2.62 0 l0 1.38 c0 2.14 -0.82 3.24 -3.14 3.24 c-1.92 0 -3.12 -0.68 -3.12 -2.82 l0 -4.82 c0 -2.06 0.94 -2.98 3.12 -2.98 c1.62 0 3.1 0.9 2.98 2.28 c0 0.16 0.22 0.2 0.26 0.02 c0 -1.76 -1.6 -2.52 -3.24 -2.52 c-2 0 -3.36 0.72 -3.36 3.2 l0 4.82 z M33.260000000000005 20 c-0.1 0 -0.16 -0.08 -0.16 -0.18 l0 -12.84 c0 -0.1 0.06 -0.18 0.16 -0.18 l2.28 0 c0.1 0 0.18 0.08 0.18 0.18 l0 12.84 c0 0.1 -0.08 0.18 -0.18 0.18 l-2.28 0 z M34.300000000000004 8 l0 10.78 c0 0.18 0.22 0.18 0.22 0 l0 -10.78 c0 -0.14 -0.22 -0.14 -0.22 0 z M41.46 9.3 l-2.84 0 c-0.1 0 -0.18 -0.08 -0.18 -0.18 l0 -2.14 c0 -0.1 0.08 -0.18 0.18 -0.18 l8.34 0 c0.1 0 0.18 0.08 0.18 0.18 l0 2.14 c0 0.1 -0.08 0.18 -0.18 0.18 l-2.84 0 l0 10.52 c0 0.1 -0.08 0.18 -0.18 0.18 l-2.3 0 c-0.1 0 -0.18 -0.08 -0.18 -0.18 l0 -10.52 z M45.74 7.9 l-6.04 0 c-0.14 0 -0.14 0.26 0 0.26 l2.96 0 l0 10.6 c0 0.14 0.26 0.14 0.26 0 l0 -10.6 l2.82 0 c0.2 0 0.18 -0.26 0 -0.26 z M52.440000000000005 6.92 c0.02 -0.06 0.06 -0.12 0.14 -0.12 l2.48 0 c0.08 0 0.12 0.06 0.14 0.12 l3.46 12.86 c0.02 0.12 -0.06 0.22 -0.18 0.22 l-2.28 0 c-0.06 0 -0.12 -0.04 -0.14 -0.12 l-0.78 -2.8 l-2.92 0 l-0.76 2.8 c-0.02 0.08 -0.06 0.12 -0.14 0.12 l-2.3 0 c-0.12 0 -0.2 -0.1 -0.18 -0.22 z M53 14.6 l1.66 0 l-0.86 -3.02 z M56.08 15.780000000000001 l0.92 3 c0.04 0.12 0.26 0.1 0.2 -0.06 l-3.2 -10.64 c-0.06 -0.26 -0.4 -0.28 -0.46 0 l-3.1 10.64 c-0.06 0.14 0.16 0.2 0.22 0.08 l0.88 -3.02 l4.54 0 z M51.6 15.52 l2.18 -7.36 l2.22 7.36 l-4.4 0 z M63.9 6.800000000000001 c0.1 0 0.18 0.08 0.18 0.18 l0 10.5 l4.32 0 c0.1 0 0.18 0.08 0.18 0.18 l0 2.16 c0 0.1 -0.08 0.18 -0.18 0.18 l-6.78 0 c-0.1 0 -0.16 -0.08 -0.16 -0.18 l0 -12.84 c0 -0.1 0.06 -0.18 0.16 -0.18 l2.28 0 z M62.66 8.02 l0 10.76 c0 0.04 0.04 0.1 0.12 0.1 l4.62 0 c0.16 0 0.16 -0.26 0 -0.26 l-4.52 0 l0 -10.6 c0 -0.14 -0.22 -0.16 -0.22 0 z M83.36 11.9 c1.52 0.72 3.5 1.86 3.5 3.92 c0 0.6 -0.1 1.76 -0.76 2.74 c-0.74 1.1 -1.9 1.64 -3.5 1.64 c-1.7 0 -3.68 -0.82 -4.3 -2.68 c-0.02 -0.06 0 -0.12 0.06 -0.16 l1.84 -1.58 c0.08 -0.06 0.2 -0.06 0.26 0.04 c0.04 0.1 0.12 0.26 0.22 0.46 c0.3 0.62 1.02 1.24 1.82 1.24 c0.62 0 1.46 -0.34 1.46 -1.3 c0 -0.92 -1.26 -1.44 -2.04 -1.74 c-0.9 -0.36 -1.82 -0.82 -2.6 -1.5 c-0.82 -0.76 -1.22 -1.6 -1.22 -2.6 c0 -2.5 2.3 -3.76 4.48 -3.76 c1.72 0 3 0.9 3.84 2.68 c0.04 0.08 0 0.18 -0.06 0.22 l-1.78 1.24 c-0.08 0.04 -0.12 0.04 -0.2 -0.06 c-0.68 -0.98 -1.28 -1.44 -2.08 -1.44 c-0.42 0 -1.4 0.16 -1.4 0.9 c0 0.9 1.66 1.36 2.46 1.74 z M79.72 17.42 c0.5 1 1.88 1.58 3 1.58 c1.46 0 2.64 -1 2.8 -2.52 c0.2 -1.86 -1.26 -2.66 -2.7 -3.38 l-0.64 -0.28 c-1.48 -0.66 -2.56 -1.16 -2.56 -2.54 c0 -1.52 1.4 -2.22 2.78 -2.22 c1.26 0 1.92 0.74 2.26 1.2 c0.12 0.16 0.32 0.02 0.2 -0.14 c-0.34 -0.42 -1.06 -1.3 -2.46 -1.3 c-1.58 0 -3.02 0.78 -3.02 2.46 c0 1.5 1.2 2.08 2.72 2.78 l0.62 0.3 c1.98 0.94 2.7 1.82 2.54 3.1 c-0.3 2.04 -1.86 2.3 -2.54 2.3 c-1.5 0 -2.5 -0.9 -2.8 -1.46 c-0.1 -0.1 -0.24 0 -0.2 0.12 z M91.36 6.9 l1.74 3.36 l1.7 -3.36 c0.06 -0.1 0.08 -0.1 0.16 -0.1 l2.24 0 c0.12 0 0.2 0.12 0.16 0.22 l-2.9 6.74 l0 6.06 c0 0.1 -0.08 0.18 -0.18 0.18 l-2.36 0 c-0.06 0 -0.14 -0.08 -0.14 -0.18 l0 -6.06 l-2.98 -6.7 c-0.04 -0.14 0.02 -0.26 0.16 -0.26 l2.24 0 c0.08 0 0.1 0 0.16 0.1 z M93.2 13.3 l2.5 -5.2 c0.06 -0.12 -0.14 -0.22 -0.22 -0.08 l-2.38 4.98 l-2.44 -4.98 c-0.08 -0.14 -0.3 -0.04 -0.24 0.1 l2.56 5.18 l0 5.52 c0 0.14 0.22 0.16 0.22 0 l0 -5.52 z M105.54 6.98 c0 -0.1 0.08 -0.18 0.18 -0.18 l2.3 0 c0.1 0 0.18 0.08 0.18 0.18 l0 12.84 c0 0.1 -0.08 0.18 -0.18 0.18 l-2.22 0 c-0.08 0 -0.16 -0.04 -0.18 -0.1 l-2.92 -6.58 l0 6.5 c0 0.1 -0.08 0.18 -0.18 0.18 l-2.28 0 c-0.1 0 -0.16 -0.08 -0.16 -0.18 l0 -12.84 c0 -0.1 0.06 -0.18 0.16 -0.18 l2.36 0 c0.08 0 0.12 0.06 0.14 0.1 l2.8 6.46 l0 -6.38 z M106.98 18.8 l0 -10.8 c0 -0.14 -0.26 -0.18 -0.26 0 l0 10.28 l-5.22 -10.32 c-0.06 -0.08 -0.22 -0.08 -0.22 0.04 l0 10.78 c0 0.18 0.24 0.18 0.24 0 l0 -10.26 l5.2 10.3 c0.08 0.14 0.26 0.1 0.26 -0.02 z M118.22 15.379999999999999 l0 -0.62 c0 -0.1 0.08 -0.18 0.18 -0.18 l2.28 0 c0.1 0 0.18 0.08 0.18 0.18 l0 1.26 c0 2.94 -1.58 4.18 -4.56 4.18 c-2.78 0 -4.6 -1.1 -4.6 -4.18 l0 -5.26 c0 -2.96 1.62 -4.14 4.6 -4.14 c2.82 0 4.56 1.08 4.56 4.14 l0 0.42 c0 0.1 -0.08 0.18 -0.18 0.18 l-2.3 0 c-0.1 0 -0.18 -0.08 -0.18 -0.18 l0 -0.32 c0 -1.1 -0.82 -1.56 -1.8 -1.56 l-0.24 0 c-0.66 0 -1.1 0.18 -1.4 0.58 c-0.28 0.38 -0.38 0.88 -0.38 1.54 l0 3.96 c0 1.74 0.98 2.12 1.78 2.12 l0.24 0 c1.26 0 1.78 -0.84 1.82 -2.12 z M116.25999999999999 7.859999999999999 c-2.14 0 -3.38 0.76 -3.38 3.2 l0 4.82 c0 2.22 1.14 3.04 3.38 3.04 c2.1 0 3.36 -0.76 3.36 -3.06 c0 -0.16 -0.24 -0.16 -0.24 0 c0 2.02 -1.1 2.84 -3.12 2.84 c-1.96 0 -3.16 -0.68 -3.16 -2.82 l0 -4.82 c0 -2.08 0.98 -2.98 3.16 -2.98 c2.84 0 2.94 1.8 2.94 2 c0 0.18 0.28 0.2 0.28 0 c0 -1.66 -1.68 -2.22 -3.22 -2.22 z"></path></g><g id="SvgjsG7080" featureKey="IfqRl1-0" transform="matrix(1.0095534176463465,0,0,1.0095534176463465,130.07121095926476,42.316757934893154)" fill="#111111"><path d="M3.94 9.3 l-2.84 0 c-0.1 0 -0.18 -0.08 -0.18 -0.18 l0 -2.14 c0 -0.1 0.08 -0.18 0.18 -0.18 l8.34 0 c0.1 0 0.18 0.08 0.18 0.18 l0 2.14 c0 0.1 -0.08 0.18 -0.18 0.18 l-2.84 0 l0 10.52 c0 0.1 -0.08 0.18 -0.18 0.18 l-2.3 0 c-0.1 0 -0.18 -0.08 -0.18 -0.18 l0 -10.52 z M8.22 7.9 l-6.04 0 c-0.14 0 -0.14 0.26 0 0.26 l2.96 0 l0 10.6 c0 0.14 0.26 0.14 0.26 0 l0 -10.6 l2.82 0 c0.2 0 0.18 -0.26 0 -0.26 z M31.904000000000003 14.780000000000001 c-0.28 0.58 -0.68 1.02 -1.24 1.28 l1.68 3.7 c0.06 0.12 -0.02 0.24 -0.14 0.24 l-2.46 0 c-0.08 0 -0.12 -0.04 -0.14 -0.1 l-1.56 -3.4 l-1.02 0 l0 3.32 c0 0.1 -0.08 0.18 -0.18 0.18 l-2.3 0 c-0.08 0 -0.14 -0.08 -0.14 -0.18 l0 -12.84 c0 -0.1 0.06 -0.18 0.14 -0.18 l4.16 0 c2.22 0 3.56 1.26 3.56 3.6 l0 2.52 c0 0.7 -0.12 1.36 -0.36 1.86 z M29.644000000000002 12.3 l0 -1.3 c0 -1.4 -0.52 -1.54 -2.04 -1.54 l-0.58 0 l0 4.42 l0.58 0 c1.26 0 2 -0.02 2.04 -1.58 z M25.864 18.78 l0 -3.42 l2.88 0 l1.68 3.46 c0.04 0.1 0.28 0.06 0.22 -0.12 l-1.68 -3.4 c1.56 -0.22 2.1 -1.04 2.1 -2.52 l0 -2.5 c0 -2.2 -2 -2.38 -2.62 -2.38 l-2.7 0 c-0.04 0 -0.12 0.06 -0.12 0.12 l0 10.76 c0 0.14 0.24 0.14 0.24 0 z M30.824 10.28 l0 2.5 c0 2.04 -1.3 2.32 -2.56 2.32 l-2.4 0 l0 -6.94 l2.58 0 c2.16 0 2.38 1.46 2.38 2.12 z M50.288000000000004 6.92 c0.02 -0.06 0.06 -0.12 0.14 -0.12 l2.48 0 c0.08 0 0.12 0.06 0.14 0.12 l3.46 12.86 c0.02 0.12 -0.06 0.22 -0.18 0.22 l-2.28 0 c-0.06 0 -0.12 -0.04 -0.14 -0.12 l-0.78 -2.8 l-2.92 0 l-0.76 2.8 c-0.02 0.08 -0.06 0.12 -0.14 0.12 l-2.3 0 c-0.12 0 -0.2 -0.1 -0.18 -0.22 z M50.848 14.6 l1.66 0 l-0.86 -3.02 z M53.928 15.780000000000001 l0.92 3 c0.04 0.12 0.26 0.1 0.2 -0.06 l-3.2 -10.64 c-0.06 -0.26 -0.4 -0.28 -0.46 0 l-3.1 10.64 c-0.06 0.14 0.16 0.2 0.22 0.08 l0.88 -3.02 l4.54 0 z M49.448 15.52 l2.18 -7.36 l2.22 7.36 l-4.4 0 z M76.45200000000001 6.800000000000001 c1.36 0 2.38 0.38 3.06 1.12 c0.6 0.66 0.9 1.64 0.9 2.84 l0 5.3 c0 2.42 -1.4 3.94 -3.96 3.94 l-5 0 c-0.1 0 -0.16 -0.08 -0.16 -0.18 l0 -12.84 c0 -0.1 0.06 -0.18 0.16 -0.18 l5 0 z M77.792 15.46 l0 -4.1 c0 -1.26 -0.66 -2.06 -2.06 -2.06 l-1.8 0 l0 8.2 l1.8 0 c1.2 0 2.06 -0.78 2.06 -2.04 z M72.512 8.02 l0 10.76 c0 0.08 0.08 0.1 0.12 0.1 l3.26 0 c2.3 0 3.34 -1.38 3.34 -2.66 l0 -5.12 c0 -2.12 -1.12 -3.2 -3.4 -3.2 l-3.2 0 c-0.04 0 -0.12 0.02 -0.12 0.12 z M78.992 11.1 l0 5.12 c0 1.6 -1.6 2.44 -3.1 2.44 l-3.14 0 l0 -10.5 l3.08 0 c2.1 0 3.16 0.94 3.16 2.94 z M96.05600000000001 20 c-0.1 0 -0.16 -0.08 -0.16 -0.18 l0 -12.84 c0 -0.1 0.06 -0.18 0.16 -0.18 l2.28 0 c0.1 0 0.18 0.08 0.18 0.18 l0 12.84 c0 0.1 -0.08 0.18 -0.18 0.18 l-2.28 0 z M97.096 8 l0 10.78 c0 0.18 0.22 0.18 0.22 0 l0 -10.78 c0 -0.14 -0.22 -0.14 -0.22 0 z M119.64000000000001 6.98 c0 -0.1 0.08 -0.18 0.18 -0.18 l2.3 0 c0.1 0 0.18 0.08 0.18 0.18 l0 12.84 c0 0.1 -0.08 0.18 -0.18 0.18 l-2.22 0 c-0.08 0 -0.16 -0.04 -0.18 -0.1 l-2.92 -6.58 l0 6.5 c0 0.1 -0.08 0.18 -0.18 0.18 l-2.28 0 c-0.1 0 -0.16 -0.08 -0.16 -0.18 l0 -12.84 c0 -0.1 0.06 -0.18 0.16 -0.18 l2.36 0 c0.08 0 0.12 0.06 0.14 0.1 l2.8 6.46 l0 -6.38 z M121.08000000000001 18.8 l0 -10.8 c0 -0.14 -0.26 -0.18 -0.26 0 l0 10.28 l-5.22 -10.32 c-0.06 -0.08 -0.22 -0.08 -0.22 0.04 l0 10.78 c0 0.18 0.24 0.18 0.24 0 l0 -10.26 l5.2 10.3 c0.08 0.14 0.26 0.1 0.26 -0.02 z M142.18400000000003 15.2 c-0.1 0 -0.18 -0.08 -0.18 -0.18 l0 -2.14 c0 -0.1 0.08 -0.18 0.18 -0.18 l4.58 0 c0.1 0 0.18 0.08 0.18 0.18 l0 3.14 c0 2.94 -1.58 4.18 -4.56 4.18 c-2.78 0 -4.6 -1.1 -4.6 -4.18 l0 -5.26 c0 -2.9 1.62 -4.14 4.6 -4.14 c2.8 0 4.56 1.08 4.56 4.14 l0 0.42 c0 0.1 -0.08 0.18 -0.18 0.18 l-2.3 0 c-0.1 0 -0.18 -0.08 -0.18 -0.18 l0 -0.26 c0 -1.22 -0.78 -1.62 -1.8 -1.62 l-0.24 0 c-0.66 0 -1.1 0.18 -1.4 0.58 c-0.28 0.38 -0.38 0.88 -0.38 1.54 l0 3.96 c0 1.74 0.94 2.12 1.78 2.12 l0.24 0 c1.22 0 1.8 -0.84 1.8 -2.12 l0 -0.18 l-2.1 0 z M139.00400000000002 15.879999999999999 c0 2.22 1.08 3.04 3.36 3.04 c2.4 0 3.38 -1 3.38 -3.46 l0 -1.5 c0 -0.06 -0.04 -0.14 -0.08 -0.14 l-2.78 0 c-0.18 0 -0.14 0.26 0 0.26 l2.62 0 l0 1.38 c0 2.14 -0.82 3.24 -3.14 3.24 c-1.92 0 -3.12 -0.68 -3.12 -2.82 l0 -4.82 c0 -2.06 0.94 -2.98 3.12 -2.98 c1.62 0 3.1 0.9 2.98 2.28 c0 0.16 0.22 0.2 0.26 0.02 c0 -1.76 -1.6 -2.52 -3.24 -2.52 c-2 0 -3.36 0.72 -3.36 3.2 l0 4.82 z"></path></g>
			</g>
		</svg>
	