
        <svg xmlns="http://www.w3.org/2000/svg" xmlns:xlink="http://www.w3.org/1999/xlink" version="1.1" width="3162.2178943750714" 
        height="1168.99988543934" viewBox="0 -32.44357887501432 3162.2178943750714 1168.99988543934">
			
			<g transform="scale(8.11089471875358) translate(10, 10)">
				<defs id="SvgjsDefs2651"></defs><g id="SvgjsG2652" featureKey="symbolFeature-0" transform="matrix(3.7539724576271185,0,0,3.7539724576271185,19,-4)" fill="#2e8cec"><g xmlns="http://www.w3.org/2000/svg" display="none"><rect x="-153.365" y="-18.667" display="inline" fill="#2e8cec" width="473.333" height="236"></rect></g><g xmlns="http://www.w3.org/2000/svg" display="none"><ellipse transform="matrix(0.7071 -0.7071 0.7071 0.7071 -6.6274 16)" display="inline" cx="16" cy="16" rx="16" ry="16"></ellipse><line display="inline" fill="#2e8cec" stroke="#2e8cec" stroke-miterlimit="10" x1="7.837" y1="15.12" x2="15.267" y2="7.69"></line><line display="inline" fill="#2e8cec" stroke="#2e8cec" stroke-miterlimit="10" x1="7.968" y1="19.579" x2="20.033" y2="7.514"></line><line display="inline" fill="#2e8cec" stroke="#2e8cec" stroke-miterlimit="10" x1="7.759" y1="24.377" x2="24.241" y2="7.896"></line><line display="inline" fill="#2e8cec" stroke="#2e8cec" stroke-miterlimit="10" x1="12.518" y1="24.209" x2="24.064" y2="12.662"></line><line display="inline" fill="#2e8cec" stroke="#2e8cec" stroke-miterlimit="10" x1="16.83" y1="24.486" x2="24.22" y2="17.096"></line></g><g xmlns="http://www.w3.org/2000/svg"><path d="M16,0C11.905,0,7.81,1.562,4.686,4.686c-6.248,6.248-6.248,16.379,0,22.627C7.81,30.438,11.905,32,16,32   c4.095,0,8.19-1.562,11.314-4.686c6.248-6.248,6.248-16.379,0-22.627C24.19,1.562,20.095,0,16,0z M26.607,26.607   C23.773,29.44,20.007,31,16,31s-7.773-1.56-10.607-4.393c-5.849-5.849-5.849-15.365,0-21.213C8.227,2.56,11.993,1,16,1   s7.773,1.56,10.607,4.393C32.455,11.242,32.455,20.758,26.607,26.607z"></path><rect x="6.298" y="10.905" transform="matrix(0.7071 -0.7071 0.7071 0.7071 -4.681 11.5091)" width="10.508" height="1"></rect><rect x="5.469" y="13.046" transform="matrix(0.7071 -0.7071 0.7071 0.7071 -5.4781 13.8675)" width="17.063" height="1"></rect><rect x="4.346" y="15.637" transform="matrix(0.7071 -0.7071 0.7071 0.7071 -6.7239 16.04)" width="23.307" height="1"></rect><rect x="10.126" y="17.936" transform="matrix(0.7071 -0.7071 0.7071 0.7071 -7.6786 18.3333)" width="16.33" height="1"></rect><rect x="15.3" y="20.292" transform="matrix(0.7071 -0.7071 0.7071 0.7071 -8.6902 20.603)" width="10.451" height="1"></rect></g><g xmlns="http://www.w3.org/2000/svg" display="none"><g display="inline"><path fill="#2e8cec" d="M16,31.5c-4.141,0-8.032-1.612-10.96-4.54S0.5,20.141,0.5,16c0-4.14,1.612-8.033,4.54-10.96    C7.968,2.112,11.859,0.5,16,0.5s8.032,1.612,10.96,4.54C29.888,7.967,31.5,11.86,31.5,16c0,4.141-1.612,8.032-4.54,10.96    S20.141,31.5,16,31.5z"></path><g><path fill="#2e8cec" d="M16,1c4.007,0,7.773,1.56,10.607,4.393c5.848,5.849,5.848,15.365,0,21.213C23.773,29.44,20.007,31,16,31     c-4.007,0-7.773-1.56-10.607-4.393c-5.849-5.849-5.849-15.365,0-21.213C8.227,2.56,11.993,1,16,1 M16,0     C11.905,0,7.81,1.562,4.686,4.686c-6.248,6.248-6.248,16.379,0,22.627C7.81,30.438,11.905,32,16,32s8.19-1.562,11.314-4.686     c6.248-6.248,6.248-16.379,0-22.627C24.19,1.562,20.095,0,16,0L16,0z"></path></g></g><line display="inline" fill="#2e8cec" stroke="#2e8cec" stroke-miterlimit="10" x1="7.837" y1="15.12" x2="15.267" y2="7.69"></line><line display="inline" fill="#2e8cec" stroke="#2e8cec" stroke-miterlimit="10" x1="7.968" y1="19.579" x2="20.033" y2="7.514"></line><line display="inline" fill="#2e8cec" stroke="#2e8cec" stroke-miterlimit="10" x1="7.759" y1="24.377" x2="24.241" y2="7.896"></line><line display="inline" fill="#2e8cec" stroke="#2e8cec" stroke-miterlimit="10" x1="12.518" y1="24.209" x2="24.064" y2="12.662"></line><line display="inline" fill="#2e8cec" stroke="#2e8cec" stroke-miterlimit="10" x1="16.83" y1="24.486" x2="24.22" y2="17.096"></line></g><g xmlns="http://www.w3.org/2000/svg" display="none"><path display="inline" d="M4.686,4.686c-6.248,6.248-6.248,16.379,0,22.627c6.248,6.248,16.379,6.248,22.627,0   c6.248-6.248,6.248-16.379,0-22.627C21.065-1.562,10.935-1.562,4.686,4.686z M19.68,7.16l0.707,0.707L8.321,19.933l-0.707-0.707   L19.68,7.16z M14.914,7.336l0.707,0.707l-7.431,7.43l-0.707-0.707L14.914,7.336z M12.871,24.562l-0.707-0.707l11.547-11.547   l0.707,0.707L12.871,24.562z M17.184,24.84l-0.707-0.707l7.39-7.39l0.707,0.707L17.184,24.84z M8.113,24.73l-0.707-0.707   l16.48-16.481l0.707,0.707L8.113,24.73z"></path></g></g><g id="SvgjsG2653" featureKey="nameFeature-0" transform="matrix(0.775125849813618,0,0,0.775125849813618,139.8759782266628,22.70597744900192)" fill="#071333"><path d="M19.6 12.04 l1.28 1.36 l-0.96 1.56 l0.76 2.08 l-6.92 0.48 l0.16 23 l-1.88 -0.12 l-1.6 0.96 l-1.4 -1.4 l-2.12 1.04 l-0.16 -22.96 l-5.04 0.36 l-0.8 -2.8 l0.6 -1.88 l-1.36 -2.28 l20.2 -1.4 z M35.519999999999996 23.08 c4.92 -3.2 2.96 -7 -2.8 -6.52 c-0.48 0.04 -1.04 0.08 -1.68 0.12 l0.32 9.08 c1.4 -0.88 2.76 -1.76 4.16 -2.68 z M40.120000000000005 28.48 l4.96 10.56 l-1.68 1.76 l-2.72 0 l-1.6 1.92 l-4.88 -10.32 c-0.84 0.48 -1.68 0.92 -2.56 1.36 l0.24 6.88 l-2.12 -0.04 l-1.44 1.12 l-1.48 -1.4 l-1.96 1.04 l-0.8 -24.04 l-2 0.2 l0.88 -2.44 l-1.32 -1.68 l0.68 -1.04 l-0.84 -1.76 s7.84 -1.08 11.64 -1.04 c4.52 0.04 9.6 0.76 11.68 5.64 c2.24 5.4 -0.28 9.72 -4.68 13.28 z M56.36 28.52 l3.24 -0.32 l-1.64 -6.24 z M62 9.68 l8.24 30.88 l-2 -0.12 l-0.92 1.12 l-2.16 -1.16 l-1.88 1.64 l-1.88 -7 l-6.8 0.72 l-1.36 5.6 l-2.68 0.24 l-2 -1.4 l-2.44 0.52 l5.72 -23.32 l-2.72 0.16 l0.32 -2 l-0.96 -1.4 l1 -1.76 l-1.6 -1.72 z M86.48000000000002 24.04 c1.48 -3.16 1.08 -5.8 -3.68 -6.8 c-1.4 -0.32 -2.8 -0.08 -4.2 0.04 l0.16 15.32 c3.16 -2.28 6.32 -5.56 7.72 -8.56 z M94.24000000000001 19.32 c0.88 9.92 -11.04 19.36 -17.68 22.68 c-0.56 -0.56 -2.48 -1.04 -2.48 -1.04 l-0.4 -2.36 l-1.6 -0.36 l-0.4 -20.24 l-2.4 0.32 l0.8 -2.16 l-1.08 -1.36 l0.92 -1.68 l-0.96 -1.92 c3.92 -0.64 10.16 -1.36 15.2 -0.68 c4.96 0.64 9.56 2.84 10.08 8.8 z M116.60000000000001 37.56 l0.92 1.96 l-16.24 2.76 l-0.24 -1.88 l-1.8 0.04 l0.28 -2 l-1.92 -0.08 l0.6 -20.6 l-2 0 l0.96 -2 l-1 -1.28 l0.6 -1.52 l-0.4 -2.04 l18.64 -0.92 l0.68 3.16 l-1.12 1.24 l0.92 2.6 l-10.24 0.48 l-0.16 5.4 l9.32 -1.12 l-0.88 2.6 l1.4 1.24 l-0.76 3.2 l-9.28 1.16 l-0.12 4.56 l12.16 -2 l-0.8 2.36 l1.24 1.2 z M140.72000000000003 34.6 c-2.24 5.44 -7.96 7.08 -11.56 7.08 c-5.2 0 -9.32 -2.72 -10.92 -4 l0.68 -2.08 l0.76 -0.52 l-0.8 -1.28 l1.72 -2.52 c2.12 1.68 4.72 3.4 8.4 3.4 c2.64 0 5.2 -1.52 5.84 -3.76 c-0.8 -0.28 -1.8 -0.44 -3.04 -0.56 c-1.56 -0.16 -3.24 -0.24 -4.84 -0.48 c-3.16 -0.44 -6.6 -1.52 -7.16 -5.36 c-0.92 -6.44 9.48 -14.44 14 -15.4 l0.64 1.52 l1.48 0.08 l0.56 1.44 l1.52 0.84 l-0.12 7.32 l-2.64 0.92 l-2.08 -1.36 l-1.92 1.08 l0.04 -3.28 c-1.64 1.04 -3.08 2.8 -4.24 5.16 c1.6 0.32 3.28 0.48 4.92 0.68 c2.2 0.24 4.6 0.64 6.48 1.56 c3 1.52 4.4 4.24 2.28 9.52 z M164.12 10 l2.28 0.76 l-7.6 16.12 l0.24 13.52 l-1.84 -0.24 l-1.6 0.72 l-1.4 -0.72 l-2.12 1.16 l-0.28 -14 l-9.48 -14.44 l3.2 -0.28 l0.2 -1.56 l2.8 -1.48 l6.24 9.48 l5.16 -10.92 l2.44 0.12 l0.68 2.04 z M188.16000000000003 10.760000000000002 l2.04 -0.08 l-1.16 30.36 l-1.68 -1.68 l-0.64 2.32 l-10.96 -15.72 l0.52 14.08 l-2.16 0.36 l-1.64 -0.88 l-0.8 1.32 l-2.48 -0.24 l-0.84 -29.84 l2.04 0.8 l1.6 -1.44 l2.84 0.68 l7.96 12.36 l0.4 -12.96 l1.84 0.72 l1.6 -1.6 z M216.44 34.64 l0.76 2.28 c-9.72 7.08 -20.48 5.76 -23.4 -1.64 c-3.04 -7.84 3.28 -21.48 14.96 -26.64 l1 1.44 l2.04 -0.2 l1.92 1.56 l-0.72 12.04 l-1.92 0.64 l-1.36 -0.52 l-1.24 0.96 l-2.48 -0.36 l0.32 -5.88 c-5.28 5 -7.24 10.68 -6.16 14.08 c0.92 2.88 7.12 2.92 12.76 -1.08 l2.24 0.92 l-0.36 2.08 z M231.4 23.08 c4.92 -3.2 2.92 -7 -2.84 -6.52 c-0.48 0.04 -1.04 0.08 -1.64 0.12 l0.32 9.08 c1.4 -0.88 2.76 -1.76 4.16 -2.68 z M240.68 15.2 c3.48 8.4 -4.48 14.12 -13.16 18.56 l0.24 6.8 l-1.96 0.2 l-1.4 0.88 l-1.8 -1.28 l-1.84 1 l-0.8 -24.04 c-1.16 0.12 -1.88 0.2 -1.88 0.2 l0.64 -2.28 l-1.48 -1.72 l0.6 -3 s7.36 -1 11.16 -0.96 c4.52 0.04 9.6 0.76 11.68 5.64 z M257.04 23.08 c4.92 -3.2 2.96 -7 -2.8 -6.52 c-0.48 0.04 -1.04 0.08 -1.68 0.12 l0.32 9.08 c1.4 -0.88 2.76 -1.76 4.16 -2.68 z M261.64000000000004 28.48 l4.96 10.56 l-1.68 1.76 l-2.72 0 l-1.6 1.92 l-4.88 -10.32 c-0.84 0.48 -1.68 0.92 -2.56 1.36 l0.24 6.88 l-2.12 -0.04 l-1.44 1.12 l-1.48 -1.4 l-1.96 1.04 l-0.8 -24.04 l-2 0.2 l0.88 -2.44 l-1.32 -1.68 l0.68 -1.04 l-0.84 -1.76 s7.84 -1.08 11.64 -1.04 c4.52 0.04 9.6 0.76 11.68 5.64 c2.24 5.4 -0.28 9.72 -4.68 13.28 z M289.48 22.32 c-0.76 -4.56 -3.64 -6.16 -7.84 -3.92 c-6.92 3.68 -7.72 10.64 -5.48 13.56 c2.16 2.8 5.68 2.36 8.16 0.84 c4.28 -2.64 5.76 -6.92 5.16 -10.48 z M296.44 19.8 c1.4 8.72 -2.72 15.24 -5.6 17.36 c-9.2 6.76 -16.72 4.56 -20.84 -1.56 c-4.64 -6.92 0.2 -21.28 11.64 -24.92 c1.24 -0.4 3.4 -0.64 5.56 -0.44 l0.44 1.92 l0.88 -0.16 l0.76 0.64 l0.56 -1.44 c3.56 1.84 5.92 4.48 6.6 8.6 z"></path></g><g id="SvgjsG2654" featureKey="sloganFeature-0" transform="matrix(0.9585349159270371,0,0,0.9585349159270371,152,62.8430811284868)" fill="#071333"><path d="M6.92 5.68 l0 1.92 l-2.38 0 l0 12.42 l-1.92 0 l0 -12.42 l-2.62 0 l0 -1.92 l6.92 0 z M15.435 20.04 l-2.04 0 l-1.1 -3.02 l-0.44 0 l0 3.02 l-1.9 0 l0 -14.32 l2.98 0 c1.32 0 2.38 1.06 2.38 2.38 l0 6.54 c0 0.86 -0.44 1.6 -1.12 2.02 z M11.855 7.619999999999999 l0 7.5 l1.08 0 c0.26 0 0.48 -0.22 0.48 -0.48 l0 -6.54 c0 -0.26 -0.22 -0.48 -0.48 -0.48 l-1.08 0 z M23.57 20 l-0.72 -4.94 l-2.02 0 l-0.66 4.94 l-1.92 0 l2.16 -14.3 l2.58 0 l2.5 14.3 l-1.92 0 z M21.09 13.16 l1.48 0 l-0.76 -5.2 z M31.125 20.02 l-2.5 0 l0 -14.26 l2.5 0 c1.7 0 3.06 1.38 3.06 3.08 l0 8.1 c0 0.82 -0.32 1.6 -0.9 2.18 s-1.34 0.9 -2.16 0.9 z M30.525 7.68 l0 10.42 l0.6 0 c0.3 0 0.6 -0.12 0.82 -0.34 s0.34 -0.5 0.34 -0.82 l0 -8.1 c0 -0.64 -0.52 -1.16 -1.16 -1.16 l-0.6 0 z M41.980000000000004 12.46 l-2.76 0 l0 5.64 l2.78 0 l0 1.9 l-4.68 0 l0 -14.28 l4.68 0 l0 1.9 l-2.78 0 l0 2.94 l2.76 0 l0 1.9 z M54.01 20.12 c-1.52 0 -2.74 -1.24 -2.74 -2.74 l0 -2.18 l1.94 0 l0 2.18 c0 0.44 0.36 0.8 0.8 0.8 s0.78 -0.36 0.78 -0.8 l0 -1.9 l-3.52 -4.86 l0 -2.48 c0 -1.52 1.22 -2.76 2.74 -2.76 c1.5 0 2.72 1.24 2.72 2.76 l0 2.16 l-1.94 0 l0 -2.16 c0 -0.46 -0.34 -0.8 -0.78 -0.8 s-0.8 0.34 -0.8 0.8 l0 1.82 l3.52 4.86 l0 2.56 c0 1.5 -1.22 2.74 -2.72 2.74 z M65.66499999999999 5.68 l3.34 0 l0 14.28 l-1.88 0 l0 -11.3 l-1.78 11.34 l-0.74 0 l-0.18 -0.04 l-0.16 0.04 l-0.74 0 l-1.76 -11.34 l0 11.3 l-1.9 0 l0 -14.28 l3.36 0 l1.22 8.08 z M77.03999999999999 20 l-0.72 -4.94 l-2.02 0 l-0.66 4.94 l-1.92 0 l2.16 -14.3 l2.58 0 l2.5 14.3 l-1.92 0 z M74.56 13.16 l1.48 0 l-0.76 -5.2 z M87.295 20.04 l-2.04 0 l-1.1 -3.02 l-0.44 0 l0 3.02 l-1.9 0 l0 -14.32 l2.98 0 c1.32 0 2.38 1.06 2.38 2.38 l0 6.54 c0 0.86 -0.44 1.6 -1.12 2.02 z M83.715 7.619999999999999 l0 7.5 l1.08 0 c0.26 0 0.48 -0.22 0.48 -0.48 l0 -6.54 c0 -0.26 -0.22 -0.48 -0.48 -0.48 l-1.08 0 z M96.89 5.68 l0 1.92 l-2.38 0 l0 12.42 l-1.92 0 l0 -12.42 l-2.62 0 l0 -1.92 l6.92 0 z M104.685 12.46 l-2.76 0 l0 5.64 l2.78 0 l0 1.9 l-4.68 0 l0 -14.28 l4.68 0 l0 1.9 l-2.78 0 l0 2.94 l2.76 0 l0 1.9 z M113.32000000000001 20.04 l-2.04 0 l-1.1 -3.02 l-0.44 0 l0 3.02 l-1.9 0 l0 -14.32 l2.98 0 c1.32 0 2.38 1.06 2.38 2.38 l0 6.54 c0 0.86 -0.44 1.6 -1.12 2.02 z M109.74000000000001 7.619999999999999 l0 7.5 l1.08 0 c0.26 0 0.48 -0.22 0.48 -0.48 l0 -6.54 c0 -0.26 -0.22 -0.48 -0.48 -0.48 l-1.08 0 z M118.135 21.2 l-0.24 0 l-0.4 -1.2 l-1.04 0 l0 -1.84 l1.68 0 l0 3.04 z M132.045 16.72 l0.08 -11.08 l1.92 0 l-0.12 14.44 l-2.98 0 l-1.62 -11.18 l0 11.18 l-1.92 0 l0 -14.44 l3.1 0 z M139.88 20.02 c-1.5 0 -2.7 -1.22 -2.7 -2.7 l0 -8.98 c0 -1.48 1.2 -2.68 2.7 -2.68 c1.48 0 2.68 1.2 2.68 2.68 l0 8.98 c0 1.48 -1.2 2.7 -2.68 2.7 z M139.88 7.5600000000000005 c-0.44 0 -0.78 0.36 -0.78 0.78 l0 8.98 c0 0.44 0.34 0.78 0.78 0.78 c0.42 0 0.78 -0.34 0.78 -0.78 l0 -8.98 c0 -0.42 -0.36 -0.78 -0.78 -0.78 z M152.15499999999997 5.68 l0 1.92 l-2.38 0 l0 12.42 l-1.92 0 l0 -12.42 l-2.62 0 l0 -1.92 l6.92 0 z M165.02499999999998 5.720000000000001 l1.9 0 l0 14.26 l-1.9 0 l0 -7.54 l-1.7 0 l0 7.54 l-1.9 0 l0 -14.26 l1.9 0 l0 4.84 l1.7 0 l0 -4.84 z M175.03999999999996 20 l-0.72 -4.94 l-2.02 0 l-0.66 4.94 l-1.92 0 l2.16 -14.3 l2.58 0 l2.5 14.3 l-1.92 0 z M172.55999999999997 13.16 l1.48 0 l-0.76 -5.2 z M185.29499999999996 20.04 l-2.04 0 l-1.1 -3.02 l-0.44 0 l0 3.02 l-1.9 0 l0 -14.32 l2.98 0 c1.32 0 2.38 1.06 2.38 2.38 l0 6.54 c0 0.86 -0.44 1.6 -1.12 2.02 z M181.71499999999997 7.619999999999999 l0 7.5 l1.08 0 c0.26 0 0.48 -0.22 0.48 -0.48 l0 -6.54 c0 -0.26 -0.22 -0.48 -0.48 -0.48 l-1.08 0 z M190.92999999999998 20.02 l-2.5 0 l0 -14.26 l2.5 0 c1.7 0 3.06 1.38 3.06 3.08 l0 8.1 c0 0.82 -0.32 1.6 -0.9 2.18 s-1.34 0.9 -2.16 0.9 z M190.32999999999998 7.68 l0 10.42 l0.6 0 c0.3 0 0.6 -0.12 0.82 -0.34 s0.34 -0.5 0.34 -0.82 l0 -8.1 c0 -0.64 -0.52 -1.16 -1.16 -1.16 l-0.6 0 z M201.78499999999997 12.46 l-2.76 0 l0 5.64 l2.78 0 l0 1.9 l-4.68 0 l0 -14.28 l4.68 0 l0 1.9 l-2.78 0 l0 2.94 l2.76 0 l0 1.9 z M210.41999999999996 20.04 l-2.04 0 l-1.1 -3.02 l-0.44 0 l0 3.02 l-1.9 0 l0 -14.32 l2.98 0 c1.32 0 2.38 1.06 2.38 2.38 l0 6.54 c0 0.86 -0.44 1.6 -1.12 2.02 z M206.83999999999997 7.619999999999999 l0 7.5 l1.08 0 c0.26 0 0.48 -0.22 0.48 -0.48 l0 -6.54 c0 -0.26 -0.22 -0.48 -0.48 -0.48 l-1.08 0 z"></path></g>
			</g>
		</svg>
	